<svg width="16" height="16" viewBox="0 0 16 16" fill="none" xmlns="http://www.w3.org/2000/svg">
<g clip-path="url(#clip0_201_6)">
<path d="M7.39 15.5L6.861 13.383L6.577 13.307C5.641 13.057 4.788 12.565 4.11 11.888L3.901 11.68L1.81 12.278L1.2 11.222L2.768 9.705L2.692 9.421C2.565 8.943 2.5 8.465 2.5 8C2.5 7.535 2.565 7.057 2.692 6.579L2.768 6.295L1.2 4.778L1.81 3.722L3.901 4.32L4.109 4.112C4.787 3.434 5.64 2.943 6.576 2.693L6.86 2.617L7.39 0.5H8.61L9.139 2.617L9.423 2.693C10.36 2.944 11.213 3.435 11.89 4.112L12.098 4.32L14.19 3.722L14.8 4.778L13.232 6.295L13.308 6.579C13.435 7.057 13.5 7.535 13.5 8C13.5 8.465 13.435 8.943 13.308 9.421L13.232 9.705L14.8 11.222L14.191 12.278L12.099 11.68L11.891 11.888C11.213 12.566 10.36 13.057 9.424 13.307L9.14 13.383L8.61 15.5H7.39ZM8 5.5C6.622 5.5 5.5 6.622 5.5 8C5.5 9.378 6.622 10.5 8 10.5C9.378 10.5 10.5 9.378 10.5 8C10.5 6.622 9.378 5.5 8 5.5Z" fill="#DCD5F2"/>
<path d="M8.219 1L8.582 2.453L8.725 3.024L9.294 3.176C10.146 3.404 10.921 3.85 11.537 4.465L11.953 4.882L12.519 4.72L13.953 4.31L14.172 4.69L13.095 5.731L12.672 6.14L12.824 6.708C12.941 7.144 13 7.579 13 8C13 8.421 12.941 8.856 12.824 9.292L12.672 9.86L13.095 10.269L14.172 11.31L13.953 11.69L12.519 11.28L11.953 11.118L11.537 11.534C10.922 12.15 10.146 12.596 9.294 12.823L8.725 12.975L8.582 13.546L8.219 15H7.781L7.418 13.547L7.275 12.976L6.706 12.824C5.854 12.596 5.079 12.15 4.463 11.535L4.047 11.118L3.481 11.28L2.047 11.69L1.828 11.31L2.905 10.269L3.328 9.86L3.176 9.292C3.059 8.856 3 8.421 3 8C3 7.579 3.059 7.144 3.176 6.708L3.328 6.14L2.905 5.731L1.828 4.69L2.047 4.31L3.481 4.72L4.047 4.882L4.463 4.465C5.079 3.85 5.854 3.404 6.706 3.176L7.275 3.024L7.418 2.453L7.781 1H8.219ZM8 11C9.654 11 11 9.654 11 8C11 6.346 9.654 5 8 5C6.346 5 5 6.346 5 8C5 9.654 6.346 11 8 11ZM9 0H7L6.447 2.21C5.415 2.487 4.49 3.025 3.756 3.759L1.572 3.134L0.572001 4.866L2.21 6.45C2.077 6.945 2 7.463 2 8C2 8.537 2.077 9.055 2.21 9.55L0.572001 11.134L1.572 12.866L3.756 12.241C4.49 12.975 5.415 13.513 6.447 13.79L7 16H9L9.553 13.79C10.585 13.514 11.511 12.975 12.244 12.241L14.428 12.866L15.428 11.134L13.79 9.55C13.923 9.055 14 8.537 14 8C14 7.463 13.923 6.945 13.79 6.45L15.428 4.866L14.428 3.134L12.244 3.759C11.51 3.025 10.585 2.487 9.553 2.21L9 0ZM8 10C6.895 10 6 9.105 6 8C6 6.895 6.895 6 8 6C9.105 6 10 6.895 10 8C10 9.105 9.105 10 8 10Z" fill="#C1BFC2"/>
</g>
<defs>
<clipPath id="clip0_201_6">
<rect width="16" height="16" fill="white"/>
</clipPath>
</defs>
</svg>
